<svg width="1134" height="1070" viewBox="0 0 1134 1070" fill="none" xmlns="http://www.w3.org/2000/svg">
<path fill-rule="evenodd" clip-rule="evenodd" d="M418.197 719.642C386.428 706.62 336.615 681.544 289.127 634.359C269.439 614.8 197.234 541.107 179.648 428.079C157.496 285.714 230.416 135.043 353.662 57.0015C467.96 -15.3734 586.259 -0.409195 619.871 5.14318C813.56 37.1397 905.038 204.319 916.039 225.254C899.569 197.078 869.538 153.774 819.237 115.054C808.888 107.089 774.885 81.7672 723.729 61.4677C701.727 52.7347 631.503 25.6854 546.547 32.0808C462.281 38.4243 345.864 79.0046 272.129 187.656C175.231 330.44 223.857 484.962 230.642 505.291C277.723 646.344 394.595 707.833 418.197 719.642Z" fill="white"/>
<path fill-rule="evenodd" clip-rule="evenodd" d="M384.047 582.77C384.047 583.684 383.971 584.977 384.352 586.725C384.656 588.393 385.415 590.446 386.631 592.728C387.847 594.925 389.671 597.283 391.951 599.64C396.434 604.349 402.969 608.989 410.797 613.089C418.7 617.275 427.971 621.07 438.306 624.262C443.473 625.935 448.869 627.378 454.568 628.746C460.192 630.035 466.043 631.328 472.122 632.472C484.281 634.675 497.124 636.578 510.422 637.941C523.796 639.309 537.625 640.298 551.764 640.678C565.823 641.057 580.106 640.982 594.469 640.298C608.833 639.689 623.196 638.475 637.329 636.497C651.388 634.525 665.297 631.938 678.672 628.287C685.359 626.469 691.891 624.417 698.354 621.909C704.736 619.397 710.964 616.511 717.047 612.865C720.083 610.967 723.05 608.915 725.936 606.402C728.823 603.895 731.635 600.934 733.992 597.208C736.35 593.407 738.322 588.778 738.702 583.604L738.776 582.39V579.808C738.702 578.59 738.552 577.296 738.322 576.088C737.793 573.73 737.109 571.448 736.195 569.395C734.297 565.37 731.94 562.254 729.582 559.672C727.23 557.085 724.798 554.957 722.441 553.129C717.565 549.35 713.412 547.163 708.761 544.774C705.795 543.25 701.769 541.326 696.83 539.38C716.427 569.224 712.642 582.47 712.562 583.759C712.482 585.031 712.118 586.18 712.118 586.185C712.027 586.469 711.921 586.747 711.803 587.03C711.648 587.559 711.423 588.089 711.119 588.698C710.889 589.227 710.584 589.762 710.205 590.371V590.446C709.825 590.9 709.52 591.429 709.066 591.964C708.307 593.028 707.318 594.091 706.18 595.155C705.95 595.385 705.645 595.69 705.34 595.92C703.977 597.208 702.379 598.427 700.631 599.565C699.717 600.175 698.653 600.859 697.589 601.463C696.755 601.997 695.841 602.452 694.933 602.981C693.944 603.441 692.955 603.975 691.966 604.424C689.993 605.493 687.786 606.402 685.434 607.316C685.359 607.316 685.204 607.391 685.129 607.471C679.655 609.674 673.428 611.726 666.281 613.624C664.383 614.084 662.405 614.613 660.353 615.067C657.391 615.826 654.2 616.51 650.934 617.195C634.972 620.461 615.899 623.048 593.555 624.641C580.485 625.63 566.352 626.239 551.08 626.469C516.35 626.998 398.562 615.222 384.503 582.77C384.276 582.39 384.276 582.011 384.276 581.786C384.2 581.556 384.2 581.481 384.2 581.481C384.2 581.481 384.2 581.556 384.124 581.786C384.124 582.011 384.124 582.315 384.047 582.77ZM600.638 262.707C610.217 230.839 598.083 210.115 610.431 178.005C620.058 152.972 638.5 136.792 651.917 127.299C642.333 127.305 621.111 128.698 601.215 142.856C574.274 162.025 567.608 191.896 566.063 199.325C558.638 235.122 577.011 250.045 568.944 285.756C564.668 304.699 555.345 318.862 548.204 327.819C582.789 304.037 595.431 280.031 600.638 262.707ZM556.27 278.265C558.574 257.68 549.385 246.98 548.204 222.373C547.397 205.588 550.508 186.322 560.878 164.752C519.007 195.003 512.135 216.74 513.629 231.016C515.693 250.734 534.183 260.657 536.679 288.06C538.208 304.874 532.884 319.051 528.613 327.819C544.457 312.737 554.25 296.271 556.27 278.265ZM695.136 483.395C729.614 435.12 725.52 382.881 723.948 368.729H690.528C690.763 383.908 689.796 439.009 649.036 489.157C612.601 533.992 566.229 547.96 550.508 551.964C557.799 552.22 644.818 553.84 695.136 483.395ZM379.374 366.424H629.466C595.693 374.813 457.339 391.912 427.199 392.93C427.604 408.951 429.886 429.278 436.994 451.703C452.627 501.019 482.769 532.613 499.801 547.928C484.847 543.192 443.886 528.037 412.794 486.275C374.81 435.257 378.135 380.229 379.374 366.424Z" fill="white"/>
<path fill-rule="evenodd" clip-rule="evenodd" d="M880.147 1038.71C880.147 1043.44 881.254 1047.91 883.472 1052.13C885.685 1056.34 888.657 1059.71 892.383 1062.23C896.109 1064.76 900.054 1066.02 904.213 1066.02C907.292 1066.02 910.243 1065.26 913.065 1063.73C915.887 1062.21 918.202 1059.85 920.014 1056.66C921.821 1053.48 922.73 1049.54 922.73 1044.87C922.73 1041.15 922.126 1037.61 920.923 1034.26C919.72 1030.91 918.047 1027.97 915.903 1025.45C913.754 1022.92 911.274 1020.96 908.468 1019.57C905.656 1018.18 902.7 1017.48 899.594 1017.48C896.189 1017.48 893.003 1018.33 890.031 1020.02C887.059 1021.7 884.67 1024.17 882.863 1027.41C881.051 1030.65 880.147 1034.42 880.147 1038.71ZM874.112 1041.79C874.112 1036.87 875.411 1032.34 878.02 1028.18C880.628 1024.02 884.092 1020.73 888.412 1018.29C892.731 1015.86 897.312 1014.65 902.144 1014.65C905.442 1014.65 908.692 1015.3 911.91 1016.59C915.123 1017.89 917.999 1019.71 920.538 1022.04C923.077 1024.38 925.103 1027.24 926.616 1030.61C928.129 1033.99 928.888 1037.66 928.888 1041.63C928.888 1046.46 927.685 1050.98 925.279 1055.18C922.874 1059.38 919.533 1062.73 915.251 1065.21C910.97 1067.7 906.132 1068.94 900.728 1068.94C896.595 1068.94 892.87 1068.12 889.545 1066.5C886.225 1064.89 883.392 1062.7 881.061 1059.94C878.72 1057.19 876.977 1054.24 875.834 1051.09C874.684 1047.95 874.112 1044.84 874.112 1041.79ZM758.286 1017.08V1015.42C760.718 1015.58 762.268 1015.68 762.947 1015.72C763.621 1015.76 764.417 1015.77 765.337 1015.74L768.822 1015.66C770.442 1017.72 772.345 1019.89 774.531 1022.19C776.723 1024.48 779.171 1026.94 781.886 1029.58C784.602 1032.21 786.136 1033.7 786.483 1034.05L810.389 1056.74C810.602 1053.37 810.715 1048.25 810.715 1041.39V1033.57C810.715 1029.41 810.613 1026.27 810.41 1024.17C810.207 1022.06 809.822 1020.51 809.255 1019.51C808.689 1018.51 807.94 1017.84 807.026 1017.5C806.107 1017.17 804.567 1016.82 802.408 1016.47L802.851 1015.34C803.231 1015.28 803.894 1015.26 804.84 1015.26C805.674 1015.26 806.513 1015.27 807.352 1015.29C808.186 1015.32 809.175 1015.39 810.308 1015.5C810.982 1015.55 811.688 1015.58 812.415 1015.58H814.2L819.342 1015.5L819.422 1016.88C817.803 1017.12 816.643 1017.5 815.937 1018.01C815.237 1018.52 814.734 1019.37 814.44 1020.56C813.954 1022.78 813.612 1027.11 813.409 1033.57C813.206 1040.02 813.104 1046.17 813.104 1052C813.104 1054.3 813.125 1056.5 813.163 1058.6C813.206 1060.71 813.248 1062.6 813.307 1064.28C813.361 1065.95 813.441 1067.5 813.548 1068.94L811.885 1068.86C810.025 1064.83 804.407 1058.46 795.036 1049.73L779.839 1035.55C779.326 1035.17 778.08 1034.05 776.092 1032.19C774.109 1030.33 771.602 1027.99 768.576 1025.18L768.052 1049.99C767.913 1055.09 768.025 1058.66 768.373 1060.7C768.726 1062.74 769.496 1064.08 770.682 1064.75C771.874 1065.41 774.13 1066.06 777.45 1066.71C777.45 1067.29 777.396 1067.8 777.289 1068.25C776.856 1068.25 775.557 1068.19 773.398 1068.09C771.185 1067.97 769.848 1067.93 769.389 1067.93C768.956 1067.93 767.47 1067.97 764.93 1068.09C764.497 1068.11 763.92 1068.15 763.188 1068.21C762.461 1068.26 761.515 1068.33 760.355 1068.41C759.975 1068.41 759.697 1068.33 759.521 1068.19C759.344 1068.04 759.259 1067.79 759.259 1067.44C759.259 1067.03 759.323 1066.79 759.462 1066.71C759.596 1066.63 759.895 1066.56 760.355 1066.5C761.541 1066.37 762.402 1066.16 762.926 1065.86C763.455 1065.56 763.877 1064.99 764.203 1064.16C764.524 1063.32 764.759 1061.99 764.909 1060.17C765.059 1058.34 765.15 1056 765.182 1053.14L765.46 1033.81C765.513 1029.57 765.433 1026.42 765.214 1024.37C765 1022.32 764.391 1020.66 763.391 1019.39C762.391 1018.12 760.691 1017.35 758.286 1017.08ZM677.489 1031.58L672.913 1043.37C672.293 1045.05 671.876 1046.1 671.662 1046.53C673.709 1046.85 676.072 1047.02 678.74 1047.02L682.465 1046.94C684.705 1046.94 686.715 1046.89 688.495 1046.77C687.549 1044.02 686.945 1042.39 686.678 1041.87L683.764 1034.42C683.438 1033.61 682.824 1032.14 681.92 1030C681.017 1027.87 680.365 1026.41 679.958 1025.63C679.451 1026.76 679.007 1027.79 678.643 1028.73C678.28 1029.66 677.895 1030.61 677.489 1031.58ZM690.313 1068.09V1066.75C691.553 1066.53 692.547 1066.25 693.29 1065.9C694.033 1065.55 694.402 1064.95 694.402 1064.12C694.402 1063.34 694.161 1062.2 693.675 1060.71C693.188 1059.23 692.825 1058.2 692.584 1057.63L689.586 1049.49C688.019 1049.28 685.459 1049.16 681.915 1049.16H678.702C675.484 1049.06 672.656 1049.22 670.219 1049.65L667.241 1057.14C665.932 1060.28 665.274 1062.24 665.274 1063.02C665.274 1063.97 665.697 1064.76 666.552 1065.39C667.402 1066.03 669.134 1066.53 671.758 1066.91V1068.25C668.594 1067.87 665.905 1067.68 663.692 1067.68C661.426 1067.68 658.967 1067.79 656.321 1068.01V1066.83C657.94 1066.42 659.18 1065.79 660.046 1064.93C660.693 1064.36 661.554 1063.01 662.618 1060.9C663.687 1058.78 664.772 1056.47 665.868 1053.96C666.958 1051.47 667.749 1049.52 668.241 1048.11L674.725 1032.59C675.538 1030.73 676.371 1028.78 677.221 1026.74C678.071 1024.7 678.879 1022.66 679.632 1020.6C680.391 1018.55 680.942 1016.9 681.295 1015.66C681.295 1015.31 681.38 1015.05 681.541 1014.89L682.882 1014.81C683.716 1017.81 684.636 1020.68 685.635 1023.44L694.135 1046.25C696.321 1051.95 697.973 1056.16 699.095 1058.87C700.212 1061.58 701.191 1063.52 702.03 1064.68C702.73 1065.68 704.173 1066.29 706.354 1066.5V1067.93C704.141 1067.71 702.003 1067.6 699.956 1067.6C698.331 1067.6 696.829 1067.64 695.439 1067.72C694.044 1067.8 692.943 1067.88 692.135 1067.94C691.323 1068.01 690.719 1068.06 690.313 1068.09ZM581.211 1017.16V1015.42C584.263 1015.58 586.166 1015.69 586.925 1015.74C589.678 1015.85 591.528 1015.9 592.474 1015.9C592.8 1015.9 594.206 1015.85 596.692 1015.74C599.172 1015.64 601.513 1015.52 603.699 1015.42V1017.32C601.321 1017.32 599.701 1017.45 598.835 1017.71C597.969 1017.96 597.322 1018.47 596.895 1019.22C596.002 1020.93 595.553 1027.43 595.553 1038.73C595.553 1046.52 595.558 1051.44 595.574 1053.51C595.59 1055.58 595.638 1057.79 595.719 1060.14C595.772 1062.03 595.922 1063.37 596.162 1064.15C596.408 1064.94 597.066 1065.53 598.151 1065.92C599.225 1066.31 600.968 1066.52 603.373 1066.55L603.213 1068.09C602.833 1068.09 602.085 1068.07 600.963 1068.02C599.84 1067.99 598.68 1067.95 597.483 1067.93C596.275 1067.9 595.355 1067.88 594.703 1067.86C594.056 1067.85 593.313 1067.84 592.474 1067.84C591.287 1067.84 590.293 1067.85 589.496 1067.86C588.7 1067.88 587.642 1067.9 586.316 1067.93C584.996 1067.95 583.798 1067.99 582.734 1068.02C581.665 1068.07 581.024 1068.09 580.81 1068.09L580.725 1066.55C583.643 1066.38 585.616 1066.05 586.642 1065.53C587.668 1065.02 588.369 1064.2 588.748 1063.06C589.288 1061.61 589.635 1058.85 589.78 1054.79C589.929 1050.72 590.004 1046.44 590.004 1041.93C590.004 1037.86 589.871 1032.01 589.598 1024.37C589.518 1022.26 589.309 1020.75 588.973 1019.85C588.63 1018.95 587.877 1018.28 586.701 1017.85C585.53 1017.42 583.697 1017.19 581.211 1017.16ZM486.944 1017.24V1015.82C490.347 1015.85 492.575 1015.88 493.629 1015.9C494.682 1015.93 495.558 1015.96 496.262 1015.98C500.8 1015.98 503.782 1015.93 505.216 1015.82L505.135 1017.4C503.271 1017.57 501.878 1017.79 500.962 1018.07C500.042 1018.35 499.381 1018.96 498.976 1019.88C498.734 1020.47 498.556 1021.96 498.45 1024.33C498.341 1026.71 498.247 1029.76 498.166 1033.49C498.057 1037.68 497.976 1041.47 497.923 1044.87C497.867 1048.28 497.842 1051.66 497.842 1055C497.842 1058.05 497.923 1060.31 498.085 1061.76C498.247 1063.22 498.516 1064.14 498.895 1064.52C499.354 1064.87 500.116 1065.13 501.185 1065.29C502.25 1065.45 504.527 1065.53 508.011 1065.53C511.845 1065.53 515.055 1065.23 517.632 1064.6C520.213 1063.98 522.149 1063.32 523.447 1062.62C525.174 1061.57 526.366 1059.77 527.012 1057.23L528.349 1057.39C528.189 1058.5 527.82 1060.16 527.253 1062.37C526.686 1064.59 526.024 1066.6 525.27 1068.41C522.945 1068.14 521.095 1068.01 519.722 1068.01C518.882 1067.97 518.102 1067.96 517.391 1067.94C516.675 1067.93 515.841 1067.93 514.9 1067.93H486.457L486.376 1066.67C487.959 1066.34 489.111 1066 489.835 1065.61C490.559 1065.24 491.101 1064.58 491.466 1063.65C491.826 1062.72 492.061 1061.32 492.17 1059.45C492.276 1057.59 492.332 1054.91 492.332 1051.39L492.413 1033.57C492.466 1029.55 492.466 1026.49 492.413 1024.41C492.358 1022.34 492.17 1020.78 491.846 1019.77C491.522 1018.76 491.008 1018.1 490.306 1017.79C489.602 1017.48 488.483 1017.29 486.944 1017.24ZM403.595 1031.58L399.022 1043.37C398.399 1045.05 397.981 1046.1 397.766 1046.53C399.817 1046.85 402.177 1047.02 404.846 1047.02L408.571 1046.94C410.809 1046.94 412.82 1046.89 414.6 1046.77C413.658 1044.02 413.05 1042.39 412.782 1041.87L409.869 1034.42C409.546 1033.61 408.93 1032.14 408.026 1030C407.125 1027.87 406.471 1026.41 406.067 1025.63C405.555 1026.76 405.114 1027.79 404.75 1028.73C404.385 1029.66 404 1030.61 403.595 1031.58ZM416.418 1068.09V1066.75C417.658 1066.53 418.651 1066.25 419.396 1065.9C420.138 1065.55 420.51 1064.95 420.51 1064.12C420.51 1063.34 420.266 1062.2 419.781 1060.71C419.294 1059.23 418.932 1058.2 418.689 1057.63L415.694 1049.49C414.124 1049.28 411.566 1049.16 408.022 1049.16H404.81C401.59 1049.06 398.761 1049.22 396.325 1049.65L393.35 1057.14C392.036 1060.28 391.38 1062.24 391.38 1063.02C391.38 1063.97 391.805 1064.76 392.656 1065.39C393.507 1066.03 395.242 1066.53 397.862 1066.91V1068.25C394.702 1067.87 392.013 1067.68 389.8 1067.68C387.531 1067.68 385.072 1067.79 382.426 1068.01V1066.83C384.047 1066.42 385.288 1065.79 386.154 1064.93C386.802 1064.36 387.66 1063.01 388.726 1060.9C389.795 1058.78 390.876 1056.47 391.972 1053.96C393.066 1051.47 393.856 1049.52 394.345 1048.11L400.832 1032.59C401.643 1030.73 402.476 1028.78 403.327 1026.74C404.178 1024.7 404.983 1022.66 405.74 1020.6C406.497 1018.55 407.049 1016.9 407.404 1015.66C407.404 1015.31 407.484 1015.05 407.646 1014.89L408.989 1014.81C409.824 1017.81 410.741 1020.68 411.741 1023.44L420.241 1046.25C422.427 1051.95 424.08 1056.16 425.199 1058.87C426.319 1061.58 427.298 1063.52 428.134 1064.68C428.835 1065.68 430.279 1066.29 432.462 1066.5V1067.93C430.246 1067.71 428.112 1067.6 426.06 1067.6C424.44 1067.6 422.933 1067.64 421.543 1067.72C420.15 1067.8 419.051 1067.88 418.241 1067.94C417.431 1068.01 416.823 1068.06 416.418 1068.09ZM286.981 1024.37L285.604 1024.05C286.88 1020.67 288.022 1017.46 289.027 1014.4C289.675 1015 290.162 1015.39 290.486 1015.56C290.81 1015.74 291.39 1015.88 292.228 1015.98C293.955 1016.2 297.882 1016.31 304.013 1016.31H324.503C325.017 1016.31 326.663 1016.28 329.443 1016.23C332.226 1016.18 333.816 1016.14 334.222 1016.14C335.356 1016.14 336.113 1016.08 336.49 1015.93C336.868 1015.78 337.273 1015.46 337.706 1014.97C337.949 1015.35 338.298 1015.69 338.759 1015.98C337.812 1018.55 337.07 1021.32 336.531 1024.29L334.789 1024.53C334.923 1023.64 335.032 1022.43 335.113 1020.89C334.356 1020.24 333.14 1019.72 331.466 1019.33C329.79 1018.94 327.103 1018.74 323.404 1018.74C320.702 1018.74 318.92 1018.76 318.056 1018.8C317.19 1018.84 316.651 1018.95 316.435 1019.12C316.218 1019.3 316.084 1019.69 316.03 1020.28L315.787 1025.71C315.787 1026.58 315.706 1028.96 315.544 1032.85C315.517 1033.82 315.489 1036.48 315.463 1040.82C315.435 1045.15 315.408 1048.92 315.382 1052.11C315.382 1056.17 315.423 1059.01 315.504 1060.65C315.584 1062.28 315.813 1063.53 316.192 1064.4C316.57 1065.26 317.144 1065.83 317.915 1066.1C318.684 1066.37 320.001 1066.63 321.864 1066.87C323.08 1066.98 323.688 1067.15 323.688 1067.39C323.688 1067.91 323.66 1068.23 323.606 1068.33C323.201 1068.39 322.675 1068.41 322.026 1068.41C320.378 1068.3 318.932 1068.22 317.692 1068.17C315.881 1068.01 314.422 1067.93 313.316 1067.93C310.695 1067.93 307.819 1068.17 304.686 1068.65C302.957 1068.95 302.012 1069.1 301.85 1069.1C301.445 1069.1 301.154 1069 300.979 1068.81C300.802 1068.63 300.62 1068.27 300.432 1067.76C300.782 1067.65 301.62 1067.44 302.944 1067.11C304.833 1066.68 306.19 1066.29 307.016 1065.94C307.839 1065.59 308.358 1065.16 308.575 1064.64C308.791 1064.13 308.9 1063.32 308.9 1062.21C308.9 1060.89 309.006 1059.36 309.224 1057.63C309.224 1057.8 309.249 1056.19 309.305 1052.81C309.358 1049.44 309.399 1047.04 309.426 1045.62C309.452 1044.2 309.467 1042.51 309.467 1040.54C309.467 1034.76 309.447 1030.63 309.406 1028.14C309.366 1025.65 309.277 1023.73 309.143 1022.37C309.006 1021 308.791 1019.93 308.495 1019.14C306.17 1018.93 303.617 1018.82 300.837 1018.82C297.92 1018.82 295.656 1018.92 294.051 1019.11C292.443 1019.29 291.2 1019.6 290.324 1020.04C289.446 1020.47 288.825 1020.96 288.46 1021.5C288.096 1022.04 287.602 1022.99 286.981 1024.37ZM210.498 1017.16V1015.42C213.549 1015.58 215.453 1015.69 216.21 1015.74C218.965 1015.85 220.814 1015.9 221.761 1015.9C222.085 1015.9 223.487 1015.85 225.974 1015.74C228.458 1015.64 230.795 1015.52 232.983 1015.42V1017.32C230.605 1017.32 228.985 1017.45 228.121 1017.71C227.255 1017.96 226.607 1018.47 226.177 1019.22C225.286 1020.93 224.84 1027.43 224.84 1038.73C224.84 1046.52 224.845 1051.44 224.86 1053.51C224.872 1055.58 224.921 1057.79 225.002 1060.14C225.055 1062.03 225.204 1063.37 225.448 1064.15C225.69 1064.94 226.351 1065.53 227.432 1065.92C228.512 1066.31 230.254 1066.52 232.659 1066.55L232.497 1068.09C232.117 1068.09 231.368 1068.07 230.248 1068.02C229.127 1067.99 227.964 1067.95 226.764 1067.93C225.561 1067.9 224.637 1067.88 223.989 1067.86C223.34 1067.85 222.596 1067.84 221.761 1067.84C220.57 1067.84 219.578 1067.85 218.783 1067.86C217.985 1067.88 216.924 1067.9 215.602 1067.93C214.278 1067.95 213.083 1067.99 212.017 1068.02C210.948 1068.07 210.307 1068.09 210.093 1068.09L210.011 1066.55C212.928 1066.38 214.899 1066.05 215.927 1065.53C216.952 1065.02 217.653 1064.2 218.033 1063.06C218.573 1061.61 218.917 1058.85 219.066 1054.79C219.213 1050.72 219.289 1046.44 219.289 1041.93C219.289 1037.86 219.153 1032.01 218.884 1024.37C218.803 1022.26 218.593 1020.75 218.256 1019.85C217.917 1018.95 217.162 1018.28 215.987 1017.85C214.812 1017.42 212.982 1017.19 210.498 1017.16ZM981.691 877.071C981.691 891.841 985.149 905.808 992.071 918.98C998.994 932.146 1008.28 942.676 1019.93 950.566C1031.57 958.456 1043.9 962.401 1056.9 962.401C1066.52 962.401 1075.74 960.023 1084.56 955.249C1093.38 950.481 1100.62 943.12 1106.27 933.156C1111.93 923.197 1114.76 910.919 1114.76 896.315C1114.76 884.667 1112.88 873.612 1109.12 863.141C1105.36 852.68 1100.13 843.501 1093.42 835.606C1086.71 827.716 1078.97 821.595 1070.19 817.25C1061.41 812.904 1052.17 810.728 1042.46 810.728C1031.83 810.728 1021.87 813.363 1012.58 818.639C1003.3 823.915 995.829 831.618 990.174 841.748C984.518 851.878 981.691 863.648 981.691 877.071ZM962.826 886.693C962.826 871.33 966.899 857.154 975.046 844.153C983.187 831.153 994.012 820.858 1007.52 813.262C1021.02 805.666 1035.33 801.865 1050.44 801.865C1060.73 801.865 1070.91 803.891 1080.95 807.943C1090.99 811.995 1099.98 817.672 1107.92 824.968C1115.85 832.276 1122.18 841.197 1126.91 851.749C1131.64 862.301 1134 873.778 1134 886.185C1134 901.297 1130.24 915.414 1122.73 928.538C1115.22 941.661 1104.78 952.106 1091.4 959.873C1078.02 967.64 1062.89 971.521 1046.01 971.521C1033.09 971.521 1021.44 968.987 1011.06 963.925C1000.68 958.857 991.842 952.02 984.54 943.414C977.238 934.802 971.791 925.581 968.209 915.751C964.617 905.915 962.826 896.229 962.826 886.693ZM903.678 942.906C903.256 944.007 901.444 950.251 898.237 961.642C889.122 964.347 880.848 966.437 873.423 967.912C865.992 969.388 857.931 970.126 849.24 970.126C838.773 970.126 828.307 968.271 817.84 964.556C807.374 960.846 797.966 955.335 789.605 948.033C781.25 940.736 774.622 931.83 769.731 921.321C764.834 910.812 762.386 898.849 762.386 885.426C762.386 867.027 766.919 851.493 775.996 838.835C785.067 826.171 796.635 816.849 810.688 810.856C824.741 804.864 839.238 801.865 854.179 801.865C865.907 801.865 877.218 803.934 888.107 808.071C893.174 809.675 896.97 810.477 899.503 810.477C900.685 810.22 901.551 810.054 902.096 809.969C902.647 809.883 903.342 809.803 904.186 809.712C904.694 809.712 905.239 810.055 905.832 810.728L903.935 817.944C902.16 824.274 900.599 832.335 899.252 842.128C897.729 841.871 896.718 841.347 896.211 840.545C895.703 839.743 895.451 838.455 895.451 836.68C895.28 831.367 894.564 827.737 893.297 825.792C891.02 822.082 885.322 818.281 876.208 814.4C867.088 810.52 857.931 808.574 848.732 808.574C836.576 808.574 825.586 811.594 815.75 817.629C805.914 823.664 798.153 832.506 792.454 844.153C786.756 855.801 783.907 869.475 783.907 885.175C783.907 899.608 786.419 912.036 791.444 922.46C796.464 932.883 802.75 941.132 810.308 947.209C817.862 953.287 825.543 957.681 833.348 960.381C841.157 963.08 847.93 964.427 853.671 964.427C862.785 964.427 870.338 962.936 876.331 959.937C882.323 956.938 887.032 953.351 890.448 949.171C893.869 944.996 897.178 939.993 900.391 934.172C901.658 931.723 902.753 930.499 903.678 930.499C905.282 930.499 906.084 931.258 906.084 932.776C906.084 933.878 905.282 937.251 903.678 942.906ZM605.501 968.859L600.31 968.607C600.476 956.874 598.156 942.778 593.345 926.319C595.371 925.731 596.718 925.394 597.397 925.309C599.423 931.638 601.005 936.219 602.144 939.047C603.282 941.875 604.758 944.36 606.575 946.514C608.387 948.669 610.9 950.588 614.107 952.277C619.592 955.147 625.926 957.719 633.1 959.996C640.273 962.278 647.998 963.417 656.267 963.417C663.441 963.417 670.641 961.642 677.858 958.098C685.074 954.554 688.682 946.75 688.682 934.674C688.682 928.602 687.624 923.368 685.518 918.98C683.406 914.591 680.643 911.042 677.221 908.342C673.806 905.643 669.834 903.237 665.322 901.126C660.805 899.014 654.957 896.609 647.784 893.909C637.825 890.28 629.62 886.565 623.162 882.769C616.705 878.969 611.579 874.286 607.778 868.716C603.977 863.141 602.08 856.352 602.08 848.328C602.08 835.585 606.768 824.968 616.133 816.491C625.504 808.007 638.878 803.763 656.267 803.763C665.13 803.763 673.87 804.693 682.476 806.548C685.935 807.227 688.089 807.563 688.933 807.563C691.467 807.563 693.996 806.719 696.529 805.03L697.545 804.522C698.219 804.522 699.063 804.693 700.073 805.03C699.822 806.97 699.587 808.889 699.379 810.792C699.165 812.69 698.956 814.78 698.748 817.057C698.534 819.334 698.384 821.109 698.304 822.376C698.219 823.643 698.133 824.487 698.048 824.91C699.143 835.125 699.651 840.695 699.571 841.62L695.77 841.871C695.097 833.265 692.264 826.492 687.287 821.553C682.305 816.613 676.692 813.262 670.449 811.487C664.2 809.712 658.208 808.83 652.472 808.83C638.456 808.83 629.197 812.481 624.681 819.778C620.164 827.085 617.908 833.981 617.908 840.481C617.908 847.318 619.592 852.995 622.97 857.512C626.348 862.029 630.545 865.568 635.569 868.133C640.589 870.694 647.661 873.741 656.775 877.274C667.07 881.31 675.345 885.041 681.589 888.462C687.832 891.883 693.408 896.823 698.304 903.285C703.195 909.748 705.643 917.75 705.643 927.297C705.643 935.406 703.532 942.714 699.314 949.219C695.097 955.725 688.762 960.878 680.322 964.678C671.881 968.479 661.543 970.382 649.307 970.382C637.403 970.382 625.039 968.65 612.209 965.192C609.932 964.684 608.537 964.427 608.029 964.427C605.838 964.427 604.993 965.908 605.501 968.859ZM532.679 931.258H536.603C535.25 940.036 533.775 947.316 532.171 953.1C530.568 958.884 528.499 964.39 525.971 969.623C523.186 969.366 519.385 969.179 514.574 969.051C509.764 968.923 503.011 968.859 494.318 968.859C489.083 968.859 483.47 968.773 477.479 968.607C471.485 968.436 468.91 968.356 469.756 968.356C464.268 968.356 457.875 968.42 450.574 968.543C443.271 968.672 434.472 968.901 424.177 969.238C413.879 969.575 406.325 969.874 401.514 970.126L401.769 965.822C404.403 965.234 407.08 964.577 409.802 963.861C412.521 963.144 414.369 962.364 415.347 961.519C416.324 960.675 417.026 959.643 417.451 958.414C417.877 957.195 418.302 954.976 418.728 951.769C419.236 948.562 419.722 942.762 420.188 934.359C420.652 925.961 421.031 916.532 421.328 906.065C421.622 895.599 421.728 889.056 421.645 886.442L420.758 846.179C420.505 833.687 420.019 825.246 419.302 820.858C418.583 816.469 417.213 813.556 415.188 812.118C413.162 810.685 409.32 809.418 403.666 808.323C403.666 806.97 403.75 805.874 403.919 805.03H485.075C494.191 805.03 507.948 804.693 526.35 804.019C525.928 811.279 525.169 818.538 524.073 825.792C522.972 833.056 521.577 836.68 519.893 836.68C517.781 836.68 516.728 836.05 516.728 834.783C516.728 834.275 516.894 832.671 517.236 829.972C517.573 827.272 517.738 825.711 517.738 825.289C517.738 819.126 514.045 815.202 506.662 813.513C499.276 811.829 490.433 810.979 480.137 810.979C467.73 810.979 454.773 811.829 441.269 813.513C439.749 827.524 438.99 839.3 438.99 848.836C438.99 855.085 439.03 862.259 439.116 870.362C439.2 878.461 439.243 882.262 439.243 881.754C441.269 881.925 447.472 882.01 457.854 882.01C475.746 882.01 488.028 881.674 494.697 880.995C498.495 880.572 501.048 880.07 502.357 879.477C503.664 878.883 504.909 877.386 506.092 874.981C507.272 872.575 508.581 868.882 510.017 863.905L513.687 864.156C513.687 872.934 513.665 880.786 513.628 887.703C513.58 894.626 513.521 902.564 513.435 911.507H509.004C508.751 903.745 507.588 898.341 505.522 895.299C503.454 892.263 499.465 890.323 493.558 889.478C487.648 888.633 477.139 888.211 462.032 888.211C452.324 888.211 444.727 888.633 439.243 889.478L438.736 907.455C438.144 929.403 438.904 946.327 441.016 958.226C442.529 958.649 444.343 959.114 446.452 959.616C448.559 960.124 450.562 960.53 452.458 960.819C454.353 961.118 457.072 961.412 460.612 961.706C464.155 962.006 468.578 962.15 473.888 962.15C487.121 962.15 497.508 961.182 505.054 959.237C512.596 957.302 518.369 954.175 522.373 949.871C526.382 945.563 529.814 939.362 532.679 931.258ZM214.241 882.133C219.895 883.486 226.732 884.159 234.751 884.159C238.803 884.159 243.085 883.865 247.602 883.277C252.117 882.684 256.758 881.38 261.529 879.359C266.297 877.338 270.412 873.923 273.873 869.117C277.332 864.317 279.064 857.87 279.064 849.782C279.064 844.052 277.565 838.049 274.57 831.768C271.571 825.492 266.95 820.104 260.706 815.592C254.459 811.086 246.863 808.83 237.916 808.83C234.202 808.83 230.004 809.312 225.319 810.284C220.634 811.252 217.913 812.791 217.153 814.898C215.21 819.024 214.241 841.438 214.241 882.133ZM255.768 911.886L241.208 891.124C230.067 891.124 220.824 890.579 213.481 889.478L213.228 919.862C213.228 926.282 213.418 933.455 213.798 941.388C214.178 949.321 215.041 954.934 216.393 958.226C217.066 960.252 218.229 961.685 219.875 962.53C221.521 963.374 225.212 964.556 230.953 966.074C232.809 966.496 233.738 967.175 233.738 968.1C233.738 969.96 233.146 970.885 231.966 970.885C230.613 970.885 227.069 970.462 221.33 969.623C214.071 968.944 209.64 968.607 208.037 968.607C199.848 968.607 191.408 969.195 182.715 970.382C182.123 970.382 181.406 970.462 180.563 970.633C178.874 970.633 178.031 969.874 178.031 968.356C178.031 967.512 178.347 966.881 178.98 966.453C179.614 966.036 181.026 965.528 183.222 964.935C187.02 963.925 189.763 962.385 191.451 960.317C193.138 958.248 194.363 954.196 195.123 948.161C195.883 942.126 196.303 932.44 196.389 919.103V863.141C196.556 849.472 196.493 839.428 196.199 833.008C195.903 826.599 195.206 821.889 194.11 818.896C193.011 815.897 191.325 813.893 189.046 812.882C186.767 811.867 183.179 811.065 178.284 810.477L178.79 806.297C183.262 806.468 188.96 806.548 195.883 806.548C197.908 806.548 205.271 806.024 217.976 804.966C230.677 803.913 238.717 803.383 242.095 803.383C250.957 803.383 258.933 804.607 266.024 807.056C273.113 809.504 279.041 812.754 283.812 816.806C288.58 820.858 292.188 825.476 294.637 830.667C297.083 835.857 298.308 841.197 298.308 846.682C298.308 852.343 297.043 857.827 294.51 863.141C291.978 868.459 288.137 873.297 282.989 877.638C277.838 881.989 271.214 885.677 263.111 888.719L268.821 897.325C276.778 909.315 283.379 919.001 288.626 926.383C293.872 933.771 299.506 940.88 305.53 947.717C311.554 954.554 317.704 960.103 323.982 964.368C330.259 968.629 336.39 971.013 342.373 971.521C343.973 971.772 344.774 972.617 344.774 974.055C344.774 974.814 344.394 975.38 343.634 975.76C342.874 976.139 341.059 976.332 338.19 976.332C330.001 976.332 322.111 974.536 314.514 970.949C306.918 967.362 299.701 962.53 292.864 956.452C286.028 950.374 279.95 944.007 274.633 937.336C269.315 930.67 263.025 922.187 255.768 911.886ZM0 808.83V805.03L16.3321 804.779C17.8518 804.779 25.5317 804.944 39.3755 805.281C46.2952 805.452 51.9096 805.623 56.2144 805.789C60.5191 805.96 63.008 806.045 63.6842 806.045C87.3166 806.045 106.518 805.452 121.29 804.271C120.868 808.996 120.614 814.507 120.531 820.794C120.445 827.085 120.445 832.212 120.531 836.178H115.34C114.917 829.507 113.861 824.616 112.175 821.489C110.486 818.367 106.434 815.961 100.02 814.272C93.604 812.588 83.222 811.738 68.8752 811.738C54.3552 811.738 44.7766 812.332 40.1351 813.513C39.4589 822.713 39.1221 838.204 39.1221 859.976V879.984C49.2508 880.829 58.8299 881.246 67.8622 881.246C79.5934 881.246 87.9495 880.829 92.9305 879.984C97.9087 879.14 100.947 877.702 102.046 875.676C103.143 873.65 103.692 870.149 103.692 865.167C105.548 865.167 107.194 865.001 108.63 864.664C108.966 870.234 109.136 875.339 109.136 879.984C109.136 888.762 108.966 897.582 108.63 906.445H103.439C103.439 897.918 102.72 893.236 101.287 892.391C99.4279 891.039 94.85 889.793 87.5497 888.655C80.2467 887.516 71.7008 886.944 61.9116 886.944C51.8663 886.944 44.3538 887.201 39.3755 887.709C39.0361 903.601 38.8687 917.889 38.8687 930.569C38.8687 938.689 39.059 944.456 39.4386 947.883C39.8181 951.304 40.8311 954.078 42.477 956.19C44.1228 958.301 46.5486 959.803 49.757 960.691C52.9627 961.578 58.4071 962.53 66.0896 963.545V968.356C55.2014 967.848 46.0424 967.597 38.6154 967.597H26.0812C19.3277 967.597 11.5618 967.934 2.78501 968.607L3.03838 964.427C8.5234 963.502 12.2583 962.193 14.2431 960.504C16.2257 958.82 17.5124 956.414 18.1047 953.287C19.9612 943.243 20.8902 920.161 20.8902 884.036C20.8902 879.22 20.8672 874.473 20.8271 869.79C20.7838 865.108 20.7005 858.8 20.5738 850.862C20.4471 842.929 20.1306 835.841 19.6244 829.592C19.1177 823.349 18.4414 819.126 17.5985 816.929C16.5855 814.064 14.7269 812.145 12.0274 811.172C9.32576 810.199 5.31717 809.418 0 808.83Z" fill="white"/>
</svg>
